<svg width="6" height="12" viewBox="0 0 6 12" fill="none" xmlns="http://www.w3.org/2000/svg">
<path id="Path Copy" d="M4.90732 0.609874L0.103129 5.74659C0.0344124 5.81998 0 5.90441 0 5.99992C0 6.09543 0.0344124 6.18002 0.103129 6.25345L4.90732 11.3897C4.97615 11.4633 5.05512 11.5 5.14449 11.5C5.23383 11.5 5.31291 11.4632 5.38159 11.3897L5.89691 10.8388C5.96562 10.7653 5.99996 10.6807 5.99996 10.5852C5.99996 10.4897 5.96562 10.4052 5.89691 10.3317L1.84534 5.99992L5.89716 1.66799C5.96588 1.59456 6 1.50998 6 1.41462C6 1.31895 5.96566 1.23441 5.89716 1.16098L5.38162 0.609912C5.31294 0.536483 5.23383 0.5 5.14453 0.5C5.05512 0.499962 4.97604 0.536445 4.90732 0.609874Z" fill="#3c85ee"/>
</svg>
