<svg width="11" height="11" viewBox="0 0 11 11" fill="none" xmlns="http://www.w3.org/2000/svg">
<g id="close-3 copy">
<path id="Path" d="M6.48411 5.4873L10.7517 1.21956C11.0294 0.941961 11.0294 0.493122 10.7517 0.215523C10.4741 -0.0620754 10.0253 -0.0620754 9.74768 0.215523L5.47994 4.48326L1.21233 0.215523C0.934604 -0.0620754 0.485895 -0.0620754 0.208296 0.215523C-0.0694322 0.493122 -0.0694322 0.941961 0.208296 1.21956L4.4759 5.4873L0.208296 9.75503C-0.0694322 10.0326 -0.0694322 10.4815 0.208296 10.7591C0.346641 10.8975 0.528543 10.9671 0.710315 10.9671C0.892086 10.9671 1.07386 10.8975 1.21233 10.7591L5.47994 6.49133L9.74768 10.7591C9.88615 10.8975 10.0679 10.9671 10.2497 10.9671C10.4315 10.9671 10.6132 10.8975 10.7517 10.7591C11.0294 10.4815 11.0294 10.0326 10.7517 9.75503L6.48411 5.4873Z" fill="#6A74A8"/>
</g>
</svg>
