<svg width="25" height="24" viewBox="0 0 25 24" fill="none" xmlns="http://www.w3.org/2000/svg">
<path id="Fill 18" fill-rule="evenodd" clip-rule="evenodd" d="M0 12C0 5.373 5.52497 0 12.3429 0C19.1592 0 24.6857 5.373 24.6857 12C24.6857 18.6285 19.1592 24 12.3429 24C5.52497 24 0 18.6285 0 12ZM15.843 8.38591L10.6802 13.9477L8.85949 11.8886C8.46754 11.4453 7.79042 11.4036 7.34712 11.7956C6.90382 12.1875 6.86219 12.8647 7.25415 13.308L9.85817 16.2531C10.2777 16.7276 11.0152 16.7366 11.4461 16.2723L17.4135 9.84376C17.8161 9.41007 17.7909 8.73215 17.3572 8.32958C16.9235 7.927 16.2456 7.95222 15.843 8.38591Z" fill="#00CF92"/>
</svg>
