<svg width="13" height="13" viewBox="0 0 13 13" fill="none" xmlns="http://www.w3.org/2000/svg">
<path id="Path" d="M7.69099 6.5001L12.7529 1.4379C13.0824 1.10862 13.0824 0.576231 12.7529 0.246956C12.4237 -0.0823187 11.8913 -0.0823187 11.562 0.246956L6.49992 5.30915L1.43798 0.246956C1.10856 -0.0823187 0.576335 -0.0823187 0.247067 0.246956C-0.0823556 0.576231 -0.0823556 1.10862 0.247067 1.4379L5.30901 6.5001L0.247067 11.5623C-0.0823556 11.8916 -0.0823556 12.424 0.247067 12.7532C0.411161 12.9175 0.62692 13 0.842525 13C1.05813 13 1.27374 12.9175 1.43798 12.7532L6.49992 7.69104L11.562 12.7532C11.7263 12.9175 11.9419 13 12.1575 13C12.3731 13 12.5887 12.9175 12.7529 12.7532C13.0824 12.424 13.0824 11.8916 12.7529 11.5623L7.69099 6.5001Z" fill="#6A74A8"/>
</svg>
