<svg width="22" height="24" viewBox="0 0 22 24" fill="none" xmlns="http://www.w3.org/2000/svg">
<g id="Group 11">
<path id="Fill 1" fill-rule="evenodd" clip-rule="evenodd" d="M13.8288 7.85742H1.88544C0.837825 7.85742 -6.10352e-05 8.69531 -6.10352e-05 9.74293V21.7117C-6.10352e-05 22.7327 0.837825 23.5972 1.88544 23.5972H13.8542C14.8752 23.5972 15.7397 22.7593 15.7397 21.7117L15.7408 9.74293C15.7142 8.69531 14.8763 7.85742 13.8286 7.85742H13.8288ZM14.1429 21.6863C14.1429 21.8438 14.0119 21.9748 13.8544 21.9748L1.8856 21.9737C1.72805 21.9737 1.59709 21.8428 1.59709 21.6852L1.59811 9.7429C1.59811 9.58535 1.72906 9.45438 1.88662 9.45438H13.8554C14.013 9.45438 14.1439 9.58534 14.1439 9.7429L14.1429 21.6863Z" fill="#3c85ee"/>
<path id="Fill 2" fill-rule="evenodd" clip-rule="evenodd" d="M20.1145 0.000157143H8.17115C7.12353 0.000157143 6.28564 0.838043 6.28564 1.88566V6.28592H7.85707V1.88566C7.85707 1.72811 7.98803 1.59715 8.14559 1.59715H20.1144C20.2719 1.59715 20.4029 1.7281 20.4029 1.88566V13.8544C20.4029 14.012 20.2719 14.143 20.1144 14.143H17.2855V15.7144H20.1144C21.1354 15.7144 21.9999 14.8765 21.9999 13.8289V1.8855C21.9999 0.837886 21.162 0 20.1144 0L20.1145 0.000157143Z" fill="#3c85ee"/>
</g>
</svg>
