<svg width="27" height="27" viewBox="0 0 27 27" fill="none" xmlns="http://www.w3.org/2000/svg">
<g id="Group 15">
<rect id="Rectangle" width="27" height="27" rx="4" fill="#FFBD00"/>
<path id="ZIP" d="M8.1875 15.8232H11.7715V17H6.35645V16.1406L9.87207 11.0771H6.36133V9.89062H11.6934V10.7305L8.1875 15.8232ZM14.1714 17H12.7066V9.89062H14.1714V17ZM16.9132 14.4951V17H15.4483V9.89062H18.2217C18.7556 9.89062 19.2243 9.98828 19.628 10.1836C20.0349 10.3789 20.3474 10.6572 20.5655 11.0186C20.7836 11.3766 20.8926 11.7852 20.8926 12.2441C20.8926 12.9408 20.6534 13.4909 20.1749 13.8945C19.6996 14.2949 19.0404 14.4951 18.1973 14.4951H16.9132ZM16.9132 13.3086H18.2217C18.6091 13.3086 18.9037 13.2174 19.1055 13.0352C19.3106 12.8529 19.4132 12.5924 19.4132 12.2539C19.4132 11.9056 19.3106 11.624 19.1055 11.4092C18.9005 11.1943 18.6173 11.0837 18.2559 11.0771H16.9132V13.3086Z" fill="white"/>
</g>
</svg>
