<svg width="27" height="27" viewBox="0 0 27 27" fill="none" xmlns="http://www.w3.org/2000/svg">
<g id="Group 8">
<rect id="Rectangle" width="27" height="27" rx="4" fill="#FF6760"/>
<path id="PDF" d="M6.09961 14.4951V17H4.63477V9.89062H7.4082C7.94206 9.89062 8.41081 9.98828 8.81445 10.1836C9.22135 10.3789 9.53385 10.6572 9.75195 11.0186C9.97005 11.3766 10.0791 11.7852 10.0791 12.2441C10.0791 12.9408 9.83984 13.4909 9.36133 13.8945C8.88607 14.2949 8.22689 14.4951 7.38379 14.4951H6.09961ZM6.09961 13.3086H7.4082C7.79557 13.3086 8.09017 13.2174 8.29199 13.0352C8.49707 12.8529 8.59961 12.5924 8.59961 12.2539C8.59961 11.9056 8.49707 11.624 8.29199 11.4092C8.08691 11.1943 7.80371 11.0837 7.44238 11.0771H6.09961V13.3086ZM11.0044 17V9.89062H13.1919C13.8169 9.89062 14.3752 10.0322 14.8667 10.3154C15.3615 10.5954 15.7473 10.9958 16.024 11.5166C16.3007 12.0342 16.439 12.6234 16.439 13.2842V13.6113C16.439 14.2721 16.3023 14.8597 16.0288 15.374C15.7587 15.8883 15.3762 16.2871 14.8814 16.5703C14.3866 16.8535 13.8283 16.9967 13.2066 17H11.0044ZM12.4693 11.0771V15.8232H13.1773C13.7502 15.8232 14.188 15.6361 14.4908 15.2617C14.7935 14.8874 14.9481 14.3519 14.9546 13.6553V13.2793C14.9546 12.5566 14.8049 12.0098 14.5054 11.6387C14.2059 11.2643 13.7681 11.0771 13.1919 11.0771H12.4693ZM21.7003 14.0947H18.8878V17H17.4229V9.89062H22.0518V11.0771H18.8878V12.9131H21.7003V14.0947Z" fill="white"/>
</g>
</svg>
