<svg width="27" height="27" viewBox="0 0 27 27" fill="none" xmlns="http://www.w3.org/2000/svg">
<g id="Group 14">
<rect id="Rectangle" width="27" height="27" rx="4" fill="#FF8300"/>
<path id="PTT" d="M6.09961 14.4951V17H4.63477V9.89062H7.4082C7.94206 9.89062 8.41081 9.98828 8.81445 10.1836C9.22135 10.3789 9.53385 10.6572 9.75195 11.0186C9.97005 11.3766 10.0791 11.7852 10.0791 12.2441C10.0791 12.9408 9.83984 13.4909 9.36133 13.8945C8.88607 14.2949 8.22689 14.4951 7.38379 14.4951H6.09961ZM6.09961 13.3086H7.4082C7.79557 13.3086 8.09017 13.2174 8.29199 13.0352C8.49707 12.8529 8.59961 12.5924 8.59961 12.2539C8.59961 11.9056 8.49707 11.624 8.29199 11.4092C8.08691 11.1943 7.80371 11.0837 7.44238 11.0771H6.09961V13.3086ZM16.356 11.0771H14.1783V17H12.7134V11.0771H10.565V9.89062H16.356V11.0771ZM22.5401 11.0771H20.3624V17H18.8975V11.0771H16.7491V9.89062H22.5401V11.0771Z" fill="white"/>
</g>
</svg>
