<svg width="27" height="27" viewBox="0 0 27 27" fill="none" xmlns="http://www.w3.org/2000/svg">
<g id="Group 10">
<rect id="Rectangle" width="27" height="27" rx="4" fill="#6394FF"/>
<path id="DOC" d="M4.63477 17V9.89062H6.82227C7.44727 9.89062 8.00553 10.0322 8.49707 10.3154C8.99186 10.5954 9.3776 10.9958 9.6543 11.5166C9.93099 12.0342 10.0693 12.6234 10.0693 13.2842V13.6113C10.0693 14.2721 9.93262 14.8597 9.65918 15.374C9.389 15.8883 9.00651 16.2871 8.51172 16.5703C8.01693 16.8535 7.45866 16.9967 6.83691 17H4.63477ZM6.09961 11.0771V15.8232H6.80762C7.38053 15.8232 7.81836 15.6361 8.12109 15.2617C8.42383 14.8874 8.57845 14.3519 8.58496 13.6553V13.2793C8.58496 12.5566 8.43522 12.0098 8.13574 11.6387C7.83626 11.2643 7.39844 11.0771 6.82227 11.0771H6.09961ZM16.8931 13.6064C16.8931 14.3063 16.7694 14.9199 16.522 15.4473C16.2746 15.9746 15.9198 16.3815 15.4576 16.668C14.9986 16.9544 14.4712 17.0977 13.8755 17.0977C13.2863 17.0977 12.7606 16.9561 12.2984 16.6729C11.8361 16.3896 11.4781 15.986 11.2242 15.4619C10.9702 14.9346 10.8417 14.3291 10.8384 13.6455V13.2939C10.8384 12.5941 10.9637 11.9788 11.2144 11.4482C11.4683 10.9144 11.8247 10.5059 12.2837 10.2227C12.746 9.9362 13.2733 9.79297 13.8658 9.79297C14.4582 9.79297 14.9839 9.9362 15.4429 10.2227C15.9051 10.5059 16.2616 10.9144 16.5122 11.4482C16.7661 11.9788 16.8931 12.5924 16.8931 13.2891V13.6064ZM15.4087 13.2842C15.4087 12.5387 15.2753 11.9723 15.0083 11.585C14.7414 11.1976 14.3605 11.0039 13.8658 11.0039C13.3742 11.0039 12.995 11.196 12.7281 11.5801C12.4611 11.9609 12.326 12.5208 12.3228 13.2598V13.6064C12.3228 14.3324 12.4562 14.8955 12.7232 15.2959C12.9901 15.6963 13.3742 15.8965 13.8755 15.8965C14.3671 15.8965 14.7447 15.7044 15.0083 15.3203C15.272 14.9329 15.4055 14.3698 15.4087 13.6309V13.2842ZM23.4532 14.6318C23.3979 15.3968 23.1146 15.999 22.6036 16.4385C22.0958 16.8779 21.4252 17.0977 20.5919 17.0977C19.6804 17.0977 18.9626 16.7917 18.4385 16.1797C17.9177 15.5645 17.6573 14.7214 17.6573 13.6504V13.2158C17.6573 12.5322 17.7777 11.93 18.0186 11.4092C18.2595 10.8883 18.6029 10.4896 19.0489 10.2129C19.4981 9.93294 20.0189 9.79297 20.6114 9.79297C21.4317 9.79297 22.0925 10.0127 22.5938 10.4521C23.0951 10.8916 23.3848 11.5085 23.463 12.3027H21.9981C21.9623 11.8438 21.8337 11.5117 21.6124 11.3066C21.3943 11.0983 21.0606 10.9941 20.6114 10.9941C20.1231 10.9941 19.7569 11.1699 19.5128 11.5215C19.2719 11.8698 19.1482 12.4118 19.1417 13.1475V13.6846C19.1417 14.4528 19.2572 15.0143 19.4883 15.3691C19.7227 15.724 20.0906 15.9014 20.5919 15.9014C21.0443 15.9014 21.3812 15.7988 21.6026 15.5938C21.8272 15.3854 21.9558 15.0648 21.9883 14.6318H23.4532Z" fill="white"/>
</g>
</svg>
