<svg width="27" height="27" viewBox="0 0 27 27" fill="none" xmlns="http://www.w3.org/2000/svg">
<g id="Group 13">
<rect id="Rectangle" width="27" height="27" rx="4" fill="#2AB200"/>
<path id="XLS" d="M8.17871 12.3418L9.51172 9.89062H11.1963L9.12598 13.416L11.25 17H9.5459L8.17871 14.5098L6.81152 17H5.10742L7.23145 13.416L5.16113 9.89062H6.8457L8.17871 12.3418ZM13.3716 15.8232H16.482V17H11.9068V9.89062H13.3716V15.8232ZM20.9278 15.1348C20.9278 14.8581 20.8301 14.6465 20.6348 14.5C20.4395 14.3503 20.088 14.194 19.5801 14.0312C19.0723 13.8652 18.6703 13.7025 18.3741 13.543C17.5668 13.1068 17.1632 12.5192 17.1632 11.7803C17.1632 11.3962 17.2706 11.0544 17.4854 10.7549C17.7035 10.4521 18.0144 10.2161 18.418 10.0469C18.8249 9.8776 19.2807 9.79297 19.7852 9.79297C20.293 9.79297 20.7455 9.88574 21.1426 10.0713C21.5398 10.2536 21.8474 10.5124 22.0655 10.8477C22.2868 11.1829 22.3975 11.5638 22.3975 11.9902H20.9327C20.9327 11.6647 20.8301 11.4124 20.6251 11.2334C20.42 11.0511 20.1319 10.96 19.7608 10.96C19.4027 10.96 19.1244 11.0365 18.9258 11.1895C18.7273 11.3392 18.628 11.5378 18.628 11.7852C18.628 12.0163 18.7436 12.21 18.9747 12.3662C19.209 12.5225 19.5525 12.6689 20.0049 12.8057C20.8383 13.0563 21.4454 13.3672 21.8262 13.7383C22.2071 14.1094 22.3975 14.5716 22.3975 15.125C22.3975 15.7402 22.1648 16.2236 21.6993 16.5752C21.2338 16.9235 20.6072 17.0977 19.8194 17.0977C19.2725 17.0977 18.7745 16.9984 18.3253 16.7998C17.876 16.598 17.5326 16.3229 17.295 15.9746C17.0606 15.6263 16.9434 15.2227 16.9434 14.7637H18.4132C18.4132 15.5482 18.8819 15.9404 19.8194 15.9404C20.1677 15.9404 20.4395 15.8704 20.6348 15.7305C20.8301 15.5872 20.9278 15.3887 20.9278 15.1348Z" fill="white"/>
</g>
</svg>
