<svg width="17" height="18" viewBox="0 0 17 18" fill="none" xmlns="http://www.w3.org/2000/svg">
<g id="trash">
<path id="Shape" fill-rule="evenodd" clip-rule="evenodd" d="M16.0694 2.57072H11.5707V1.92803C11.5707 0.863209 10.7075 0 9.64265 0H7.07192C6.0071 0 5.14389 0.863209 5.14389 1.92803V2.57072H0.645132C0.290178 2.57072 0.00244141 2.85846 0.00244141 3.21341C0.00244141 3.56837 0.290215 3.85607 0.645132 3.85607H1.34371L2.57317 17.4108C2.60348 17.7427 2.88255 17.9963 3.21586 17.995H13.4987C13.832 17.9964 14.1111 17.7427 14.1414 17.4108L15.3708 3.85607H16.0694C16.4244 3.85607 16.7121 3.56833 16.7121 3.21338C16.7121 2.85842 16.4244 2.57072 16.0694 2.57072ZM6.42923 1.92803C6.42923 1.57308 6.71697 1.28534 7.07192 1.28534H9.64265C9.9976 1.28534 10.2853 1.57308 10.2853 1.92803V2.57072H6.42927V1.92803H6.42923ZM3.80263 16.7096H12.9119L14.0803 3.85607H5.78658H2.63745L3.80263 16.7096Z" fill="#919EAB"/>
<path id="Path" d="M6.42938 14.7385C6.4293 14.7376 6.42926 14.7367 6.42919 14.7358L5.7865 5.73834C5.76131 5.38339 5.45312 5.1161 5.09821 5.14129C4.74325 5.16649 4.47596 5.47467 4.50116 5.82959L5.14385 14.8271C5.16783 15.1641 5.44868 15.425 5.78654 15.4241H5.83282C6.1869 15.3995 6.45401 15.0925 6.42938 14.7385Z" fill="#919EAB"/>
<path id="Path_2" d="M8.35729 5.1416C8.00234 5.1416 7.7146 5.42934 7.7146 5.78429V14.7818C7.7146 15.1367 8.00234 15.4245 8.35729 15.4245C8.71224 15.4245 8.99998 15.1367 8.99998 14.7818V5.78429C8.99998 5.42934 8.71224 5.1416 8.35729 5.1416Z" fill="#919EAB"/>
<path id="Path_3" d="M11.6164 5.14129C11.2615 5.1161 10.9533 5.38339 10.9281 5.73834L10.2854 14.7358C10.2594 15.0898 10.5253 15.3979 10.8793 15.4239C10.8804 15.424 10.8814 15.424 10.8825 15.4241H10.9281C11.266 15.425 11.5468 15.1641 11.5708 14.8271L12.2135 5.82959C12.2387 5.47467 11.9714 5.16652 11.6164 5.14129Z" fill="#919EAB"/>
</g>
</svg>
