<svg width="17" height="18" viewBox="0 0 17 18" fill="none" xmlns="http://www.w3.org/2000/svg">
<g id="share-3">
<path id="Combined Shape" fill-rule="evenodd" clip-rule="evenodd" d="M13.2546 6.00005C12.3997 6.00005 11.6288 5.62737 11.0903 5.03311L5.76359 8.12607C5.84641 8.40267 5.89097 8.69612 5.89097 9C5.89097 9.30373 5.84645 9.59704 5.76371 9.87353L11.0906 12.9666C11.6291 12.3725 12.3998 12 13.2546 12C14.879 12 16.2 13.3455 16.2 15C16.2 16.6544 14.879 18 13.2546 18C11.6301 18 10.3092 16.6544 10.3092 15C10.3092 14.7549 10.3382 14.5165 10.3929 14.2883L4.99428 11.1536C4.46378 11.6773 3.74098 12 2.94542 12C1.32109 12 0 10.6545 0 9C0 7.34546 1.32109 6.00005 2.94542 6.00005C3.74085 6.00005 4.46355 6.32263 4.99402 6.84614L10.3928 3.71131C10.3381 3.48321 10.3092 3.24497 10.3092 2.99995C10.3092 1.34555 11.6301 0 13.2546 0C14.879 0 16.2 1.34555 16.2 2.99995C16.2 4.6545 14.879 6.00005 13.2546 6.00005Z" fill="#919EAB"/>
</g>
</svg>
