<svg width="19" height="16" viewBox="0 0 19 16" fill="none" xmlns="http://www.w3.org/2000/svg">
<path id="Combined Shape" fill-rule="evenodd" clip-rule="evenodd" d="M7.63107 0C7.83994 0 8.03661 0.0983374 8.16193 0.265429L9.95357 2.65429H17.9164C18.2829 2.65429 18.58 2.95138 18.58 3.31786V15.2621C18.58 15.6286 18.2829 15.9257 17.9164 15.9257H0.663571C0.297091 15.9257 0 15.6286 0 15.2621V0.663571C0 0.297091 0.297091 0 0.663571 0H7.63107ZM7.212 1.5H1.5V14.425H17.08V4.154L9.20357 4.15429L7.212 1.5ZM9.96369 9.51348C10.0439 9.43969 10.0892 9.33783 10.0892 9.23078C10.0892 9.12373 10.0439 9.02188 9.96369 8.9486L7.2712 6.4802C7.15381 6.37263 6.98149 6.34301 6.8334 6.40433C6.68532 6.46565 6.58893 6.60648 6.58893 6.76238V7.93162H4.30032C3.92929 7.93162 3.62719 8.22315 3.62719 8.5812V9.88036C3.62719 10.2384 3.92929 10.5299 4.30032 10.5299H6.58893V11.6992C6.58893 11.8551 6.68478 11.9964 6.8334 12.0577C6.98203 12.1191 7.15435 12.0889 7.2712 11.9819L9.96369 9.51348Z" fill="#919EAB"/>
</svg>
