<svg width="18" height="18" viewBox="0 0 18 18" fill="none" xmlns="http://www.w3.org/2000/svg">
<g id="Group 11">
<path id="Fill 1" fill-rule="evenodd" clip-rule="evenodd" d="M17.0572 1.12116C17.0572 0.502903 16.5534 0 15.9351 0H1.123C0.503825 0 0 0.502903 0 1.12116V4.37211C0 4.99036 0.502904 5.49327 1.123 5.49327H15.9351C16.5534 5.49327 17.0572 4.99036 17.0572 4.37211V1.12116ZM15.8466 1.21067V4.28256H1.21253L1.21161 1.21067H15.8466Z" fill="#3c85ee"/>
<path id="Fill 2" fill-rule="evenodd" clip-rule="evenodd" d="M12.22 2.97864H14.5297C14.7271 2.97864 14.8859 2.81901 14.8859 2.62246V2.18138C14.8859 1.98391 14.7271 1.8252 14.5297 1.8252H12.2209C12.0235 1.8252 11.8648 1.98391 11.8648 2.18138V2.62246C11.8638 2.81993 12.0225 2.97864 12.22 2.97864Z" fill="#3c85ee"/>
<path id="Fill 3" fill-rule="evenodd" clip-rule="evenodd" d="M15.9361 6.2417H1.123C0.503825 6.2417 0 6.74552 0 7.36286L0.000923647 10.6129C0.000923647 11.2302 0.503827 11.734 1.12392 11.734H15.9361C16.5543 11.734 17.0581 11.2302 17.0581 10.6129L17.0572 7.36286C17.0572 6.74552 16.5543 6.2417 15.9361 6.2417H15.9361ZM15.8466 7.45328V10.5223H1.21255L1.21163 7.45328H15.8466Z" fill="#3c85ee"/>
<path id="Fill 4" fill-rule="evenodd" clip-rule="evenodd" d="M12.22 9.21845H14.5297C14.7271 9.21845 14.8859 9.05973 14.8859 8.86226V8.4221C14.8859 8.22647 14.7271 8.06592 14.5297 8.06592H12.2209C12.0235 8.06592 11.8648 8.22648 11.8648 8.4221V8.86226C11.8638 9.05973 12.0225 9.21845 12.22 9.21845Z" fill="#3c85ee"/>
<path id="Fill 5" fill-rule="evenodd" clip-rule="evenodd" d="M1.123 17.9754H15.9351C16.5534 17.9754 17.0572 17.4716 17.0572 16.8542V13.6033C17.0572 12.985 16.5534 12.4821 15.9351 12.4821L1.123 12.4812C0.503825 12.4812 0 12.9841 0 13.6024V16.8533C0.000923647 17.4716 0.503825 17.9754 1.123 17.9754V17.9754ZM1.21158 16.7647V13.6919H15.8456V16.7647H1.21158Z" fill="#3c85ee"/>
<path id="Fill 6" fill-rule="evenodd" clip-rule="evenodd" d="M14.5299 14.3074H12.2212C12.0237 14.3074 11.865 14.467 11.865 14.6636V15.1046C11.865 15.3021 12.0237 15.4599 12.2212 15.4599H14.5299C14.7274 15.4599 14.8861 15.3012 14.8861 15.1046V14.6636C14.8852 14.4661 14.7274 14.3074 14.5299 14.3074Z" fill="#3c85ee"/>
</g>
</svg>
