<svg width="91" height="91" viewBox="0 0 91 91" fill="none" xmlns="http://www.w3.org/2000/svg">
<path id="Fill 1" fill-rule="evenodd" clip-rule="evenodd" d="M89.204 89.1068C88.0048 90.306 86.0048 90.306 84.704 89.1068L63.602 68.0048C56.9028 73.704 48.204 77.204 38.602 77.204C17.301 77.204 0 59.903 0 38.602C0 17.301 17.301 0 38.602 0C59.903 0 77.204 17.301 77.204 38.602C77.204 48.102 73.704 56.801 68.0048 63.602L89.1068 84.704C90.4037 85.8056 90.4037 87.8056 89.2045 89.1063L89.204 89.1068ZM70.903 38.6068C70.903 20.8058 56.505 6.4078 38.704 6.4078C20.903 6.4078 6.50499 20.8058 6.50499 38.6068C6.50499 56.4078 20.903 70.8058 38.704 70.8058C56.403 70.8058 70.903 56.3058 70.903 38.6068Z" fill="#BEC9D3"/>
</svg>
