<svg width="27" height="28" viewBox="0 0 27 28" fill="none" xmlns="http://www.w3.org/2000/svg">
<path id="Shape" fill-rule="evenodd" clip-rule="evenodd" d="M23.9831 15.0558L26.5315 17.0683C27.0081 17.4528 27.1391 18.1291 26.8411 18.6667L24.1794 23.3217C23.8787 23.8621 23.2292 24.0957 22.6579 23.8688L19.6427 22.645C19.0776 23.0565 18.474 23.4113 17.8405 23.7043L17.3785 26.9359C17.2922 27.5501 16.7692 28.0049 16.1551 27.9999H10.8409C10.2246 28.0024 9.70233 27.5424 9.62099 26.9254L9.15891 23.7054C8.52317 23.4148 7.91818 23.0599 7.35326 22.6461L4.34961 23.8664C3.77234 24.0877 3.1216 23.8509 2.81661 23.3088L0.166459 18.6795C-0.138039 18.141 -0.00969806 17.4589 0.469115 17.0706L3.0199 15.0581C2.94013 14.3558 2.94013 13.6465 3.0199 12.9442L0.471444 10.9317C-0.0138678 10.5443 -0.142479 9.85504 0.169925 9.31583L2.82354 4.6795C3.12393 4.13864 3.7737 3.90491 4.345 4.13236L7.35678 5.35505C7.92181 4.94337 8.52544 4.58856 9.15897 4.29571L9.62105 1.06408C9.70661 0.451033 10.2279 -0.00363585 10.841 8.28791e-05H16.1551C16.7733 -0.00500303 17.2989 0.454807 17.382 1.07343L17.8429 4.29576C18.4784 4.58582 19.083 4.94036 19.6474 5.3539L22.6511 4.13356C23.2284 3.9129 23.8787 4.14947 24.1841 4.6912L26.8354 9.31933C27.1396 9.85767 27.0119 10.5394 26.5339 10.9282L23.9831 12.9418C24.0621 13.6442 24.0621 14.3534 23.9831 15.0558ZM8 13.95C8 17.0214 10.4625 19.5111 13.5 19.5111C16.536 19.5075 18.9963 17.0198 19 13.95C19 10.8787 16.5376 8.38893 13.5 8.38893C10.4624 8.38893 8 10.8787 8 13.95Z" fill="#6A74A8"/>
</svg>
