<svg width="5" height="8" viewBox="0 0 5 8" fill="none" xmlns="http://www.w3.org/2000/svg">
<path d="M1.06195 7.26658L4.26474 4.15342C4.31055 4.10894 4.3335 4.05777 4.3335 3.99988C4.3335 3.942 4.31055 3.89073 4.26474 3.84623L1.06195 0.733328C1.01606 0.688732 0.963415 0.666504 0.903835 0.666504C0.844278 0.666504 0.791558 0.688802 0.745771 0.733328L0.402225 1.06726C0.356414 1.11179 0.33352 1.16303 0.33352 1.22091C0.33352 1.2788 0.356414 1.33004 0.402225 1.37457L3.10327 3.99988L0.402056 6.6253C0.356245 6.6698 0.333496 6.72106 0.333496 6.77885C0.333496 6.83683 0.35639 6.88808 0.402056 6.93258L0.745747 7.26656C0.791534 7.31106 0.844278 7.33317 0.903811 7.33317C0.963415 7.33319 1.01614 7.31108 1.06195 7.26658Z" fill="#212B36"/>
</svg>
