<svg width="6" height="10" viewBox="0 0 6 10" fill="none" xmlns="http://www.w3.org/2000/svg">
<path id="Path" d="M1.09268 9.90012L5.89687 5.23037C5.96559 5.16366 6 5.0869 6 5.00007C6 4.91324 5.96559 4.83634 5.89687 4.76959L1.09268 0.100236C1.02385 0.0333418 0.944879 0 0.855507 0C0.766172 0 0.687093 0.033447 0.618412 0.100236L0.103093 0.601134C0.0343761 0.667923 3.62396e-05 0.744785 3.62396e-05 0.831614C3.62396e-05 0.918443 0.0343761 0.995304 0.103093 1.06209L4.15466 5.00007L0.10284 8.93819C0.0341234 9.00494 0 9.08184 0 9.16853C0 9.2555 0.0343399 9.33236 0.10284 9.39911L0.618376 9.90008C0.687057 9.96683 0.766173 10 0.855472 10C0.944879 10 1.02396 9.96687 1.09268 9.90012Z" fill="black"/>
</svg>
