<svg width="15" height="18" viewBox="0 0 15 18" fill="none" xmlns="http://www.w3.org/2000/svg">
<path id="Combined Shape" fill-rule="evenodd" clip-rule="evenodd" d="M4 1.7693e-05V0H2V1.7693e-05H1.68094C0.75257 1.7693e-05 0 0.752587 0 1.68096V2V4V16.2491C0 17.1774 0.75257 17.93 1.68094 17.93H12.8872C13.8156 17.93 14.5681 17.1774 14.5681 16.2491V3.92221C14.569 3.77327 14.5105 3.63014 14.4056 3.52438L11.0438 0.162508C10.938 0.0576248 10.7949 -0.000822776 10.6459 1.7693e-05H4ZM2 1.12064H1.68094C1.37147 1.12064 1.12063 1.37149 1.12063 1.68096V2H2V1.12064ZM4 2V1.12064H10.0856V3.36189C10.0856 3.98079 10.5873 4.48252 11.2062 4.48252H13.4475V16.2491C13.4475 16.5585 13.1967 16.8094 12.8872 16.8094H1.68094C1.37147 16.8094 1.12063 16.5585 1.12063 16.2491V4H2V6H4V4H6V2H4Z" fill="#5864FF"/>
</svg>
