<svg width="26" height="26" viewBox="0 0 26 26" fill="none" xmlns="http://www.w3.org/2000/svg">
<g id="Group 9">
<circle id="Oval Copy 5" cx="13" cy="13" r="13" fill="#3c85ee"/>
<path id="Fill 1" fill-rule="evenodd" clip-rule="evenodd" d="M12.631 6.89622L8.5245 10.7611C8.28955 11.0234 8.19236 11.5254 8.46412 11.8179C8.7321 12.1067 9.252 12.0972 9.52093 11.8104L12.4046 9.09288V17.9753C12.4046 18.3753 12.7292 18.7 13.1293 18.7C13.5294 18.7 13.854 18.3753 13.854 17.9753V9.09288L16.7377 11.8104C16.9858 12.0576 17.5237 12.1038 17.7945 11.8179C18.0653 11.533 17.9785 11.0121 17.7341 10.7611L13.6276 6.89622C13.487 6.76411 13.3219 6.69995 13.1294 6.69995C12.9565 6.70656 12.7565 6.77827 12.631 6.89622Z" fill="white"/>
</g>
</svg>
