<svg width="26" height="26" viewBox="0 0 26 26" fill="none" xmlns="http://www.w3.org/2000/svg">
<g id="Group 15">
<circle id="Oval Copy 4" cx="13" cy="13" r="13" fill="#BF0711"/>
<path id="Path" fill-rule="evenodd" clip-rule="evenodd" d="M15.1062 13.871L17.6962 16.4687C18.0431 16.8166 18.0666 17.4201 17.6962 17.768C17.5345 17.9076 17.3258 18 17.118 18C16.8868 18 16.679 17.9076 16.4938 17.7445L13.8802 15.1006C13.3941 14.6131 12.6082 14.6131 12.1456 15.1006L9.50868 17.721C9.34697 17.8832 9.1157 17.9766 8.88443 17.9766C8.65316 17.9766 8.44538 17.8842 8.26018 17.721C7.91327 17.3731 7.91327 16.8394 8.26018 16.4915L10.8962 13.8476C11.3823 13.3601 11.3823 12.5719 10.8962 12.1079L8.28354 9.48659C7.91313 9.11508 7.96013 8.46634 8.42266 8.14104C8.76957 7.90909 9.23212 7.97885 9.53295 8.28058L12.1466 10.9019C12.6326 11.3894 13.4186 11.3894 13.8811 10.9019L16.5171 8.25808C16.864 7.91014 17.4422 7.91014 17.7891 8.28164C18.1125 8.62957 18.0439 9.1859 17.7196 9.5112L15.106 12.108C14.6199 12.5955 14.6199 13.3837 15.106 13.8712L15.1062 13.871Z" fill="white"/>
</g>
</svg>
