<svg width="74" height="84" viewBox="0 0 74 84" fill="none" xmlns="http://www.w3.org/2000/svg">
<g id="Group 3">
<path id="Fill 1" fill-rule="evenodd" clip-rule="evenodd" d="M49.223 83.109C46.0003 83.109 42.6683 82.4411 39.4457 80.8863L5.77771 64.9953C3.77771 63.9953 2.22301 62.3273 1.44571 60.218C0.77774 58.1086 0.89102 55.7727 1.77774 53.7727C1.88712 53.4407 2.22305 53.1048 2.66836 52.8821C6.11366 50.7727 13.0004 49.7727 17.0004 51.5501L1.44536 26.5501C0.22266 24.6595 -0.10934 22.3274 0.33596 20.2181C0.78127 18.1087 2.22656 16.1087 4.11326 14.9954C8.00386 12.6634 13.336 13.7727 15.6683 17.7727L22.5589 28.9957C23.1135 28.441 23.7816 27.773 24.4495 27.441C27.0042 25.8863 30.1175 25.773 32.5589 27.109C33.2268 25.777 34.2269 24.777 35.5589 23.8863C38.1136 22.3316 41.2269 22.2183 43.6683 23.5542C44.3362 22.2222 45.3363 21.2222 46.6683 20.3315C48.6683 19.1088 51.1136 18.7768 53.3363 19.3315C55.4457 19.8862 57.2269 21.2221 58.3363 23.1088L70.6683 45.5538C76.6683 56.5538 72.7777 68.4448 66.223 75.4448C61.555 80.3315 55.446 83.1089 49.223 83.1089L49.223 83.109ZM5.33201 56.109C5.10935 56.9996 5.10935 57.8863 5.44139 58.777C5.77342 59.8864 6.66409 60.6676 7.55079 61.109L41.2188 77C50.3282 81.332 58.6638 77.3321 63.4418 72.332C68.8871 66.4414 72.3324 56.441 67.2191 47.332L54.7741 24.777C54.3288 23.8864 53.4421 23.2223 52.4421 22.9997C51.2194 22.6677 50.1101 22.8903 48.9968 23.445C47.7741 24.113 47.1062 25.3356 46.9968 26.777C46.8874 27.6677 46.4421 28.3317 45.5515 28.6676C44.6609 28.8903 43.8835 28.6676 43.3288 28.1129C41.9968 26.5582 39.6608 26.2223 37.8835 27.2223C36.6608 27.8903 35.9929 29.1129 35.8835 30.5543C35.7741 31.4449 35.3288 32.109 34.4382 32.4449C33.5476 32.6676 32.7702 32.4449 32.2155 31.8902C30.8835 30.3355 28.5475 29.9996 26.7702 30.9996C25.7702 31.5543 25.1022 32.5543 24.8796 33.7769C24.6569 34.6675 23.989 35.2222 23.2116 35.4449C22.321 35.5543 21.5436 35.2223 21.1022 34.4449L12.2116 20.1129C10.9889 18.1129 8.43429 17.4449 6.32099 18.7809C5.32099 19.3356 4.65299 20.3356 4.43039 21.4489C4.20773 22.5583 4.32101 23.6716 4.8757 24.6716L24.0987 55.6716C24.544 56.5622 24.4307 57.4489 23.876 58.2263C23.3214 58.8943 22.208 59.2263 21.3213 58.6716L15.3213 55.2263C12.8916 54.3318 8.00104 54.7771 5.33304 56.1091L5.33201 56.109Z" fill="white"/>
<path id="Fill 2" fill-rule="evenodd" clip-rule="evenodd" d="M16.109 7.22309L16.2184 7.11371C16.3277 7.00433 16.441 6.89105 16.6637 6.78168C16.9957 6.55902 17.5543 6.11371 18.3317 5.78168C19.777 5.00434 21.777 3.89108 24.3317 2.89108C25.6637 2.44577 26.9997 1.89108 28.5544 1.55908C30.1091 1.11377 31.6638 0.78174 33.3317 0.55908C34.9996 0.33642 36.777 0.11377 38.5544 0.11377C40.3317 0.11377 42.1091 0.11377 43.8864 0.33643C45.6637 0.55909 47.4411 0.89112 49.1091 1.22705C49.9997 1.44971 50.7771 1.67236 51.5544 1.89502C52.3317 2.11768 53.1091 2.44971 53.8864 2.78564C55.4411 3.45361 56.8864 4.00834 58.2184 4.78564C58.8863 5.11767 59.5504 5.45361 60.109 5.78564C60.6637 6.11767 61.3317 6.45361 61.8863 6.78564C62.9957 7.45361 63.9957 8.11764 64.7769 8.78564C65.6675 9.45361 66.3316 9.89504 66.8863 10.4536C67.9957 11.4536 68.6636 11.8989 68.6636 11.8989C68.6636 11.8989 67.9956 11.4536 66.6636 10.6762C65.9956 10.2309 65.2183 9.78562 64.3316 9.34424C63.4409 8.78955 62.3316 8.34424 61.2222 7.78954C60.6675 7.45751 59.9995 7.23485 59.4449 7.0122C58.7769 6.78954 58.2222 6.45751 57.4449 6.23486C56.1129 5.68017 54.6676 5.23486 53.1129 4.90286C52.3355 4.6802 51.5582 4.57083 50.7809 4.34817C50.0035 4.23879 49.2262 4.01614 48.3356 4.01614C46.6676 3.79348 45.1129 3.68411 43.445 3.79348C41.777 3.79348 40.2223 3.90286 38.5544 4.12551C36.9997 4.34817 35.445 4.6802 33.9997 5.12551C32.5544 5.57082 31.2224 6.01613 29.8903 6.57081C28.6676 7.1255 27.445 7.68021 26.445 8.23881C24.3356 9.34821 22.6677 10.4615 21.6677 11.3482C21.113 11.7935 20.777 12.1255 20.445 12.3482C20.3356 12.4576 20.2223 12.5709 20.2223 12.5709L20.1129 12.6802C18.7809 13.9029 16.6676 13.9029 15.4449 12.5709C14.2222 11.2389 14.2222 9.12557 15.5543 7.90287C15.8902 7.44584 15.9996 7.33256 16.109 7.22318L16.109 7.22309Z" fill="white"/>
</g>
</svg>
