<svg width="18" height="18" viewBox="0 0 18 18" fill="none" xmlns="http://www.w3.org/2000/svg">
<g id="Group 3">
<g id="Group 12">
<path id="Fill 1" fill-rule="evenodd" clip-rule="evenodd" d="M9 0C6.6127 0 4.32419 0.948391 2.63595 2.63595C0.948453 4.32345 0 6.6127 0 9C0 11.3865 0.948391 13.6758 2.63595 15.364C4.32427 17.0515 6.6127 18 9 18C11.3873 18 13.6758 17.0516 15.364 15.364C17.0515 13.6757 18 11.3865 18 9C17.9975 6.61353 17.0483 4.32586 15.3609 2.63909C13.6742 0.951593 11.3867 0.00230233 9 0ZM9 16.7442C6.94622 16.7442 4.97658 15.9282 3.52381 14.4762C2.07178 13.0233 1.25581 11.0537 1.25581 9C1.25581 6.94633 2.07176 4.97658 3.52381 3.52381C4.97667 2.07178 6.94633 1.25581 9 1.25581C11.0537 1.25581 13.0234 2.07176 14.4762 3.52381C15.9282 4.97667 16.7442 6.94633 16.7442 9C16.7417 11.053 15.925 13.0217 14.4737 14.4737C13.0216 15.9249 11.0528 16.7417 9 16.7442Z" fill="#637381"/>
<path id="Fill 2" fill-rule="evenodd" clip-rule="evenodd" d="M14.0356 8.1612H9.62788V3.16746C9.62788 2.82081 9.34662 2.53955 8.99998 2.53955C8.65333 2.53955 8.37207 2.82081 8.37207 3.16746V8.78911C8.37207 9.13576 8.65333 9.41702 8.99998 9.41702H14.0356C14.3822 9.41702 14.6635 9.13659 14.6635 8.78911C14.6635 8.44246 14.3822 8.1612 14.0356 8.1612Z" fill="#637381"/>
</g>
</g>
</svg>
